<svg id="visual" viewBox="0 0 1920 1080" width="1920" height="1080" xmlns="http://www.w3.org/2000/svg" xmlns:xlink="http://www.w3.org/1999/xlink" version="1.1"><rect x="0" y="0" width="1920" height="1080" fill="#182128"></rect><path d="M0 735L24.7 733.7C49.3 732.3 98.7 729.7 147.8 726.7C197 723.7 246 720.3 295.2 727.8C344.3 735.3 393.7 753.7 443 762.8C492.3 772 541.7 772 590.8 770.2C640 768.3 689 764.7 738.2 762.2C787.3 759.7 836.7 758.3 886 749.3C935.3 740.3 984.7 723.7 1034 723.8C1083.3 724 1132.7 741 1181.8 749.3C1231 757.7 1280 757.3 1329.2 759.2C1378.3 761 1427.7 765 1477 764.7C1526.3 764.3 1575.7 759.7 1624.8 754.5C1674 749.3 1723 743.7 1772.2 735.7C1821.3 727.7 1870.7 717.3 1895.3 712.2L1920 707L1920 1081L1895.3 1081C1870.7 1081 1821.3 1081 1772.2 1081C1723 1081 1674 1081 1624.8 1081C1575.7 1081 1526.3 1081 1477 1081C1427.7 1081 1378.3 1081 1329.2 1081C1280 1081 1231 1081 1181.8 1081C1132.7 1081 1083.3 1081 1034 1081C984.7 1081 935.3 1081 886 1081C836.7 1081 787.3 1081 738.2 1081C689 1081 640 1081 590.8 1081C541.7 1081 492.3 1081 443 1081C393.7 1081 344.3 1081 295.2 1081C246 1081 197 1081 147.8 1081C98.7 1081 49.3 1081 24.7 1081L0 1081Z" fill="#732222"></path><path d="M0 854L24.7 850.2C49.3 846.3 98.7 838.7 147.8 837.2C197 835.7 246 840.3 295.2 841.8C344.3 843.3 393.7 841.7 443 838C492.3 834.3 541.7 828.7 590.8 825.3C640 822 689 821 738.2 817.8C787.3 814.7 836.7 809.3 886 812C935.3 814.7 984.7 825.3 1034 825.5C1083.3 825.7 1132.7 815.3 1181.8 817.8C1231 820.3 1280 835.7 1329.2 834.7C1378.3 833.7 1427.7 816.3 1477 807.3C1526.3 798.3 1575.7 797.7 1624.8 798.2C1674 798.7 1723 800.3 1772.2 803.3C1821.3 806.3 1870.7 810.7 1895.3 812.8L1920 815L1920 1081L1895.3 1081C1870.7 1081 1821.3 1081 1772.2 1081C1723 1081 1674 1081 1624.8 1081C1575.7 1081 1526.3 1081 1477 1081C1427.7 1081 1378.3 1081 1329.2 1081C1280 1081 1231 1081 1181.8 1081C1132.7 1081 1083.3 1081 1034 1081C984.7 1081 935.3 1081 886 1081C836.7 1081 787.3 1081 738.2 1081C689 1081 640 1081 590.8 1081C541.7 1081 492.3 1081 443 1081C393.7 1081 344.3 1081 295.2 1081C246 1081 197 1081 147.8 1081C98.7 1081 49.3 1081 24.7 1081L0 1081Z" fill="#54182d"></path><path d="M0 891L24.7 895C49.3 899 98.7 907 147.8 907.7C197 908.3 246 901.7 295.2 896.2C344.3 890.7 393.7 886.3 443 883.3C492.3 880.3 541.7 878.7 590.8 881.7C640 884.7 689 892.3 738.2 899.7C787.3 907 836.7 914 886 916C935.3 918 984.7 915 1034 907.5C1083.3 900 1132.7 888 1181.8 889.8C1231 891.7 1280 907.3 1329.2 906C1378.3 904.7 1427.7 886.3 1477 878.3C1526.3 870.3 1575.7 872.7 1624.8 875.3C1674 878 1723 881 1772.2 883C1821.3 885 1870.7 886 1895.3 886.5L1920 887L1920 1081L1895.3 1081C1870.7 1081 1821.3 1081 1772.2 1081C1723 1081 1674 1081 1624.8 1081C1575.7 1081 1526.3 1081 1477 1081C1427.7 1081 1378.3 1081 1329.2 1081C1280 1081 1231 1081 1181.8 1081C1132.7 1081 1083.3 1081 1034 1081C984.7 1081 935.3 1081 886 1081C836.7 1081 787.3 1081 738.2 1081C689 1081 640 1081 590.8 1081C541.7 1081 492.3 1081 443 1081C393.7 1081 344.3 1081 295.2 1081C246 1081 197 1081 147.8 1081C98.7 1081 49.3 1081 24.7 1081L0 1081Z" fill="#301429"></path><path d="M0 957L24.7 961C49.3 965 98.7 973 147.8 975C197 977 246 973 295.2 974.2C344.3 975.3 393.7 981.7 443 980.8C492.3 980 541.7 972 590.8 966.3C640 960.7 689 957.3 738.2 958C787.3 958.7 836.7 963.3 886 969C935.3 974.7 984.7 981.3 1034 981.3C1083.3 981.3 1132.7 974.7 1181.8 973.8C1231 973 1280 978 1329.2 981C1378.3 984 1427.7 985 1477 979.7C1526.3 974.3 1575.7 962.7 1624.8 957.3C1674 952 1723 953 1772.2 958.5C1821.3 964 1870.7 974 1895.3 979L1920 984L1920 1081L1895.3 1081C1870.7 1081 1821.3 1081 1772.2 1081C1723 1081 1674 1081 1624.8 1081C1575.7 1081 1526.3 1081 1477 1081C1427.7 1081 1378.3 1081 1329.2 1081C1280 1081 1231 1081 1181.8 1081C1132.7 1081 1083.3 1081 1034 1081C984.7 1081 935.3 1081 886 1081C836.7 1081 787.3 1081 738.2 1081C689 1081 640 1081 590.8 1081C541.7 1081 492.3 1081 443 1081C393.7 1081 344.3 1081 295.2 1081C246 1081 197 1081 147.8 1081C98.7 1081 49.3 1081 24.7 1081L0 1081Z" fill="#110917"></path></svg>